<?xml version="1.0" encoding="UTF-8"?><svg id="a" xmlns="http://www.w3.org/2000/svg" viewBox="0 0 256 256"><defs><style>.b{fill:#5eea03;}.b,.c,.d{stroke-width:0px;}.c{fill:#35ba2a;}.d{fill:#258402;}</style></defs><path class="b" d="M79.74,51.13c20.69,13.98,8.98,39.87-1.04,55.56l27,39c.72.28,1.16.48,1.27.53.32.15.6.35.85.58l3.25-15.57c-3.16,2.06-6.84,2.79-10.31,1.69-6.95-2.2-10.39-10.89-7.7-19.41,2.7-8.52,10.52-13.64,17.46-11.45,2.35.75,4.29,2.25,5.74,4.23l10.61-50.86c-9.26.67-18.48,3.9-26.69,9.87-3.18-4.9-10.25-13.63-20.45-14.18Z"/><path class="b" d="M70.73,52.77c-9.02,3.86-13.12,14.02-11.85,25.3l16.65,24.05c14.76-25.19,13.9-43.52-4.8-49.34Z"/><path class="d" d="M189.18,52.77c-19.53,6.08-19.61,25.82-2.73,52.76,19.3-17.46,19.26-45.7,2.73-52.76Z"/><path class="d" d="M214.88,151.08c-1.85-16.38-11.38-30.91-24.98-32.29-5.63-7.07-38.05-48.52-9.72-67.66-10.2.54-17.27,9.27-20.45,14.18-9.12-6.64-19.48-9.89-29.77-10.01-1.03.01-2.06.06-3.08.14l-10.61,50.86c2.82,3.86,3.74,9.55,1.95,15.18-1.35,4.27-3.99,7.69-7.16,9.76l-3.25,15.57c.45.42.77.95.93,1.54.15.56.15,1.15-.02,1.72l4.5,6.51c2.8-5.27,10.74-6.33,16.73-5.85,7.41-.59,17.81,1.17,17.77,10.33-.03,8.31-8.28,12.11-13.68,13.71.84,10.05,8.12,17.99,13.19,22.37,53.3,12.21,70.65-19.37,67.64-46.04ZM141.69,121.47c-2.7-8.52.75-17.21,7.69-19.41,6.95-2.2,14.77,2.93,17.46,11.45,2.7,8.52-.75,17.21-7.69,19.41-6.95,2.2-14.77-2.93-17.46-11.45ZM202.28,174.49c-1.96,2.46-5.23.98-5.77.55-10.83-8.45-23.78-11.95-41.33-9.61-1.47.19-2.76-1.02-3.1-2.47-.41-1.71.64-3.54,2.38-3.85,18.18-3.26,34.74,1.11,47.27,10.89,1.39,1.09,1.65,3.12.55,4.5ZM202.82,152.66c-.97,1.75-3.06,2.49-4.56,1.73-3.48-1.74-7.02-3.07-10.65-4.01-7.03-1.81-14.41-2.08-22.41-.58-3.13.58-6.35,1.42-9.68,2.56-1.7.58-3.69-.76-4.2-1.9-.15-.33-.22-.68-.25-1.02-.12-1.32.59-2.64,1.87-3.21.95-.42,22.85-10.35,48.49,2.13.52.26,1.51,1.2,1.72,2.43.1.57.03,1.21-.34,1.87Z"/><path class="c" d="M73.47,105.53c.72-1.15,1.4-2.29,2.06-3.42l-16.65-24.05c1.05,9.38,5.82,19.53,14.58,27.46Z"/><path class="c" d="M112.19,161.04c0-1.75.37-3.23,1.03-4.47l-4.5-6.51c-.04.13-.07.27-.13.4-.51,1.14-2.5,2.48-4.2,1.9-16.26-5.53-29.89-4.38-42.73,2.04-1.5.75-3.59.02-4.56-1.73-1.15-2.09.61-3.93,1.38-4.31,22.48-10.94,42.09-4.65,47.21-2.65l-27-39c-3.7,5.79-7.16,10.2-8.68,12.1-35.75,3.62-43.4,98.04,42.65,78.33,5.06-4.37,12.32-12.28,13.18-22.3l-.07-.09c-5.4-1.61-13.57-5.41-13.6-13.69ZM107.83,162.96c-.34,1.44-1.63,2.66-3.1,2.47-17.55-2.33-30.5,1.16-41.33,9.61-.55.43-3.81,1.91-5.77-.55-1.1-1.38-.84-3.41.55-4.5,12.53-9.78,29.09-14.15,47.27-10.89,1.74.31,2.78,2.14,2.38,3.85Z"/></svg>