<?xml version="1.0" encoding="UTF-8"?><svg id="a" xmlns="http://www.w3.org/2000/svg" xmlns:xlink="http://www.w3.org/1999/xlink" viewBox="0 0 256 256"><defs><style>.c{fill:#5eea03;}.c,.d,.e,.f{stroke-width:0px;}.d{fill:#35ba2a;}.e{fill:none;}.g{clip-path:url(#b);}.f{fill:#258402;}</style><clipPath id="b"><path class="e" d="M78.59,190.71c2.15-.43,3.37-1.86,3.61-4.31.74-7.02.72-13.26-.09-18.69-.25-1.77-1.23-3.03-2.96-3.72-.81-.34-1.21-.94-1.21-1.82l.07-8.84c.02-.83.38-1.44,1.08-1.86,2.24-1.35,3.39-3.34,3.46-6.01.11-5.5,1.7-16.87-2.87-20.8-.79-.67-1.19-1.53-1.21-2.58-.02-3.93-.27-7.67-.74-11.24-.65-5.14-3.54-7.83-8.64-8.08-.79-.04-1.32.29-1.64,1.01-.61,1.41-.18,2.96,1.26,4.69,1.3.74,2.45,1.71,3.43,2.87.43.47.63,1.1.58,1.73l-.72,13.08c-.04.81-.4,1.44-1.1,1.91-1.66,1.12-2.74,1.48-3.68,3.45-.29.61-.36,1.21-.2,1.84.16.76.63,1.19,1.39,1.28,2.8.36,5.43-.67,7.85-3.1.92-.92,1.26-.74,1.01.54-1.08,5.63-.9,11.02.52,16.15.25.92.25,1.82-.04,2.74-.18.61-.34.61-.45-.04-.2-1.1-.25-2.18-.09-3.28.09-.79-.11-1.46-.61-2.06-2.13-2.6-4.85-3.66-8.14-3.16-.74.11-1.28.52-1.59,1.19-.34.7-.31,1.39.04,2.04.96,1.68,3.14,2.29,4.85,3.05.02.02.04.04.02.09l-.2.54c-.16.43-.43.54-.85.38-1.64-.7-3.07-1.73-4.29-3.07-.34-.38-.52-.85-.52-1.37l.16-13.24c.02-.81.25-1.55.72-2.2,1.05-1.48,2.4-2.67,4.02-3.59,1.23-.7,1.21-2.49-.02-3.16-1.44-.79-2.92-.99-4.44-.61-.74.2-1.37.58-1.84,1.19-.83.99-1.75,1.71-2.8,2.15-.27,1.26-.54,2.51-.83,3.75-.29,1.32-.52,1.35-.67.07-.11-1.01.38-2.27,1.5-3.81.96-5.68.88-10.75-.22-15.26-.47-1.86-.25-1.95.63-.25.99,1.91,2.92,3.46,5.81,4.64,1.5.63,3.16-.43,3.25-2.04.09-1.64-.74-3.12-2.47-4.44-1.95-.04-2.94-.83-2.92-2.33.07-6.04.02-10.28-.13-12.68-.04-.9.09-1.73.4-2.49.4-.96,1.17-1.55,2.27-1.75.81-.13,1.5-.61,1.91-1.3.61-.99.92-2.02.99-3.07.09-1.55-.63-2.24-2.18-2.06-1.53.18-3.01.56-4.44,1.14-.79.34-1.37.85-1.79,1.59l-2.45,4.31c-.31.54-.43,1.19-.29,1.82.96,4.17,2.06,13.06-2.71,15.57-.7.36-1.05.94-1.05,1.73l.04,18.55c0,.92.31,1.71.92,2.36.74.81,1.62,1.44,2.6,1.86.83.34,1.35,1.19,1.26,2.09l-1.01,10.52c-.11,1.14-.76,1.73-1.91,1.75-.22,0-.43.04-.61.13-.83.4-1.26,1.08-1.26,2l-.09,19.2c0,.83.4,1.35,1.21,1.55.36.09.72.04,1.05-.13.96-.49,1.5-.2,1.66.85.74,5.2.72,10.34-.07,15.39-.16,1.01-.72,1.32-1.64.96-1.59-.61-2.38-.07-2.31,1.64.2,6.12.25,12.54.18,19.25-.02.83.38,1.37,1.21,1.57,1.84.47,2.83,1.73,2.96,3.77.31,5.18-1.21,12.23,2.62,16.18,4.22,4.35,8.97,5,14.25,1.97,6.64-3.81,4.67-17.19,4.17-23.27-.11-1.28-.63-2.33-1.55-3.21-1.05-1.01-1.55-.79-1.46.67.07,1.12-.18,2.18-.72,3.19-.63,1.14-.85,1.08-.65-.22.79-5.18.94-10.57.56-15.75-.04-.61.25-.99.85-1.1ZM77.7,128.99c-.27.12-.94-.78-1.48-2.02s-.77-2.33-.5-2.45c.27-.12.94.78,1.48,2.02s.77,2.33.5,2.45ZM77.71,187.55l-.56.13c-.07.02-.11,0-.11-.07-.65-4.11-2.89-6.46-6.73-7.07-1.68-.29-2.94.27-3.75,1.64-.47.81-.22,1.82.54,2.31l3.12,2c.74.47,1.17,1.12,1.28,2,.72,5.59.58,11.33-.43,17.21-.16.88-.65,1.39-1.53,1.57-1.93.4-3.07,1.57-3.45,3.5-.29,1.5,1.17,2.74,2.6,2.2l6.35-2.38c.85-.31,1.21-.02,1.1.88-.45,3.7-.63,7.18-.56,10.39.07,2.38-1.05,3.81-3.39,4.31-.31.07-.63.11-.92.09-3.12-.11-4.8-1.7-5.05-4.8l-.85-10.39c-.07-.74.13-1.39.61-1.97,1.05-1.32,2.29-2.49,3.72-3.46,2.06-1.41,1.79-4.53-.47-5.59-.79-.36-2,.09-3.63,1.35-1.5,1.14-2.8,2.4-3.95,3.79-.58.7-.76.61-.52-.27,1.21-4.42,2.04-12.79-.02-16.98-.07-.16-.09-.18-.02-.07.04.07.11.11.22.09.09,0,.16.04.22.11,1.03,1.82,2.47,3.28,4.29,4.37,1.08.65,2.24.87,3.5.63,2.15-.43,2.54-1.79,1.12-4.15-.16-.27-.36-.52-.61-.72-.79-.67-1.66-1.26-2.67-1.75-.99-.47-1.44-1.28-1.32-2.38.38-3.79.34-7.54-.16-11.28-.61-4.46,3.05-4.26,4.91-7.13.92-1.39.76-2.76-.43-4.08-1.03-1.14-2.83-1.21-3.95-.13-1.88,1.8-3.66,3.71-5.32,5.72-.05.14-.08.28-.13.42-.02.09-.09.16-.16.22-.16.11-.2.09-.13-.11.02-.07.04-.11.11-.18.1-.12.21-.23.31-.36,1.78-5.44,2.08-10.7.92-15.84-.34-1.44,0-1.59.96-.49,2.96,3.34,5.81,4.26,8.57,2.71.58-.34,1.3.09,1.3.76.02,4.85,1.28,11.89-3.84,14.7-.83.47-1.48,1.14-1.91,2.02-.47.92-.38,1.77.27,2.56.43.49.94.72,1.59.7,4.53-.16,7.43-2.47,8.66-6.91.02-.07.07-.11.16-.09.29.07.4.18.34.36-2,6.37-1.95,12.83.09,19.36.11.29,0,.49-.31.56ZM199.09,186.29c-.29-.31-.63-.54-1.03-.7-.9-.34-1.46-.99-1.66-1.91-1.44-6.04-.94-10.84,1.5-14.43,2.87-4.29,2.06-13.98,1.91-19-.04-.94-.34-1.79-.9-2.56-3.7-5.14-4.08-12.43-1.05-18.2,2.51-4.76,2-11.42,1.91-16.76-.04-1.86-.92-4.58-2.63-8.12-1.57-3.3-1.84-7.38-.79-12.25.13-.65.52-1.1,1.12-1.35,1.19-.47,1.84-1.35,1.95-2.62.54-6.04.65-12.27.34-18.71-.07-.92-.52-1.59-1.35-2l-.92-.45c-.67-.31-1.14-.94-1.28-1.66-.7-3.81-.67-7.78.09-11.91.11-.63.67-1.1,1.32-1.08,1.17,0,1.86-.96,2.06-2.89.02-.04.02-.09.02-.11.16-6.21.09-12.38-.2-18.51-.04-.92-.38-1.73-1.01-2.4-2.4-2.6-5.65-5.47-9.45-5.14-4.35.38-7.34,2.56-8.97,6.53-1.05,2.56-.25,3.54,2.47,2.94,1.55-.34,2.96-1.03,4.24-2.04,3.05-2.42,7.52.02,7.11,3.9-.61,5.95.07,11.15,2,15.66.07.16.04.18-.07.02-1.53-2.13-3.19-4.24-5-6.33-.49-.56-.74-1.19-.74-1.93-.09-7.76-8.84-10.45-14.04-5.65-4.91,4.53-7.4,12.36-10.14,18.46-.43.96-1.05,1.12-1.88.47-.47-.36-.99-.47-1.57-.31-.83.25-1.46.72-1.93,1.46-3.57,5.68-6.6,11.73-9.09,18.2-.22.56-.09,1.21.31,1.66.84.89,1.76,1.01,2.76.39-.65.79-1.24,1.7-1.77,2.75-1.96,3.94-3.84,8.02-5.68,12.2-.04-.71-.56-1.27-1.56-1.7-.83-.36-1.77-.07-2.29.67-4.4,6.55-7.72,13.48-9.94,20.78-.09.29-.02.58.16.81.34.43.7.56,1.03.38,1.32-.65,1.64-.34.96.96-2.71,5.23-5.74,10.99-9.04,17.28-2.51,4.76-1.59,10.43,3.68,12.83.61.27,1.17.22,1.73-.13,1.66-1.08,1.95-2.51.85-4.31-.92-1.53-1.41-3.1-1.5-4.71-.09-1.37.11-1.41.63-.13l2.42,6.06c.92,2.33-.22,4.96-2.56,5.88-2.92,1.14-5.32.49-7.2-1.97-2.47-3.21-4.73-6.42-6.8-9.67-.11-.16-.16-.34-.16-.54,0-.22.07-.43.22-.61.43-.47.65-.4.72.22.11,1.12.72,1.73,1.79,1.82.7.07,1.35-.16,1.91-.65,3.12-2.71,5.83-6.26,4.17-10.61-1.73-4.51-3.75-8.48-6.1-11.89-2.67-3.88-11.67-5.25-13.08.74-.22.94-.52.96-.87.07l-4.4-10.63c-.29-.7-.13-.81.45-.34.61.47,1.3.83,2.09,1.08.79.25,1.48.09,2.09-.52l3.45-3.5c.76-.76,2.06-.4,2.31.65,1.1,4.62,3.39,8.26,6.82,10.9,3.07,2.36,4.08,1.66,3.03-2.06-1.73-6.12-4.8-12.11-9.2-17.99-.74-.96-1.68-1.3-2.83-1.01-.61.16-.67.47-.25.92.2.2.34.47.36.76.04.36-.22.7-.58.76-.36.09-.72-.13-.81-.49-1.01-3.61-2.74-7.49-5.18-11.64-.38-.67-.45-1.37-.18-2.11.87-2.36.81-4.69-.25-7.02-2.18-4.78-4.49-9.29-6.95-13.48-1.08-1.84-3.12-2.8-5.12-2.42-.38.07-.65-.09-.81-.43-3.03-6.17-7.58-21.13-16.42-20.53-5.07.36-7.72,3.1-7.94,8.21-.02.85-.36,1.57-.96,2.13l-3.32,3.14c-.54.52-.83,1.14-.9,1.88-.07.9.07,1.79.43,2.67.11.31.02.54-.29.67-.52.22-.83-.09-.99-.96-.04-.27-.02-.56.09-.83,2.13-4.69,2.87-10.07,2.22-16.2-.43-4.13,4.37-6.69,7.56-4.02,1.37,1.14,2.85,1.86,4.4,2.13,2.15.38,2.85-.45,2.06-2.49-4.49-11.87-20.57-7.13-20.24,3.84.18,5.45.34,10.54.49,15.28.02.79.29,1.48.83,2.06l2.8,3.03c.52.56.74,1.19.67,1.93l-.63,9.49c-.07,1.1-.65,1.5-1.71,1.17-.54-.16-.99-.04-1.32.34-.61.72-.92,1.57-.9,2.54.07,6.3.11,12.52.13,18.64,0,1.1.56,1.62,1.66,1.53.96-.09,1.71-.54,2.27-1.35.9-1.32,1.44-2.74,1.64-4.29.54-4.15.43-8.48-.31-12.99-.18-1.01.04-1.1.67-.27,1.23,1.68,2.89,3.07,4.98,4.17,1.01.54,2.24.31,3.01-.54l.52-.58c1.03-1.14.94-2.18-.25-3.1l-3.68-2.89c-.85-.67-1.28-1.73-1.12-2.8.47-3.28.43-6.55-.09-9.83-.52-3.1.94-5.59,3.59-7.04.79-.43,1.32-1.05,1.62-1.88.56-1.57.07-2.69-1.48-3.39-1.46-.63-1.44-1.23.02-1.84.29-.11.58-.18.9-.22,1.01-.11,1.73.96,1.23,1.86-.49.9-.52,1.77-.04,2.6.94,1.71.54,2.98-1.23,3.81-2.54,1.21-3.7,3.01-3.5,5.41.11,1.17.72,1.57,1.84,1.23l1.79-.56c.79-.22,1.57.36,1.57,1.17v5.72c0,.61-.52,1.08-1.12,1.05l-2.22-.13c-.85-.04-1.44.34-1.75,1.12-.61,1.55.27,3.12,1.75,3.7,2.71,1.05,4.08,3.21,4.11,6.46.02,4.15-.02,7.94-.09,11.42-.04,1.77-1.28,3.3-3.03,3.7-2.13.49-3.1,1.71-2.92,3.63.11,1.08.7,1.64,1.79,1.71,2.56.16,4.96-.67,7.2-2.45,1.26-.99,1.79-.7,1.62.9-.67,5.68-.29,10.75,1.14,15.21.65,2.06,1.62,2.2,2.87.43.76-1.05,1.17-2.27,1.21-3.63.22-5.63.18-11.11-.11-16.47-.09-1.57-.74-2.78-1.97-3.66-1.17-.83-2.74.11-2.58,1.53.07.4.04.81-.07,1.21-.38,1.37-.49,1.3-.34-.18.72-7.22,1.75-17.1-1.32-21.99-.36-.58-.4-1.19-.13-1.82l.9-2.02c.43-.96.49-1.95.22-2.96-.45-1.68-.25-3.28.63-4.73.29-.52-.09-1.14-.67-1.12-.27.02-.52.09-.76.2-1.35.65-1.62.36-.79-.9,2.62-4.02,2.56-8.14-.25-12.34-.16-.22-.11-.4.11-.56.2-.16.38-.11.54.09,3.48,5.27,6.35,10.77,8.66,16.45.54,1.35.2,1.62-.99.81l-.76-.54c-.56-.38-1.3-.36-1.84.07-3.43,2.71-4.4,6.24-2.85,10.52,2.04,5.65,5.23,14.18,10.05,17.88,2.31,1.77,3.97,4.46,4.98,8.03.07.27.25.45.49.56l.92.38c.49.2.81.72.72,1.26-.54,3.28-.11,6.33,1.26,9.18,1.5,3.07,2.87,6.17,4.11,9.24,1.41,3.52,3.72,6.17,6.91,7.94,3.1,1.73,4.26,4.31,3.52,7.78-.92,4.29.27,8.28,3.54,12.03,1.46,1.68,2.71,3.48,3.72,5.38,2.71,5.07,8.37,7.49,13.98,6.37,7.43-1.5,9.47-9.98,8.14-16.29-.07-.31.27-.58.56-.45.61.27,1.19.04,1.79-.67.09-.09.16-.18.22-.29,1.64-3.03,3.25-6.17,4.82-9.38,1.44-2.94,3.14-6.01,5.09-9.22,2.8-4.64,5.32-9.92,7.52-15.79.61-1.62.16-2.92.22-4.58.02-.72.29-1.39.76-1.93,3.03-3.34,3.28-7.7,7.13-10.19,4.11-2.62,8.39-14.52,10.03-19.23.02-.09.09-.11.18-.09l.63.2c.29.09.38.27.29.56-1.71,5.72-2.13,11.87-1.3,18.42.07.7-.22,1.01-.9.99-2.11-.07-3.28.9-3.5,2.92-.52,4.82-.67,10.84-.43,18.04.07,2.02.99,3.43,2.76,4.24.88.38,1.41.11,1.57-.83,1.28-7.36,1.39-14.96.34-22.84-.02-.22.07-.34.29-.36h.02c.27-.02.4.11.43.4.38,5.34,2.85,8.12,7.4,8.37,2.4.13,3.25-.96,2.56-3.28-.4-1.32-1.35-2.24-2.83-2.71-1.05-.36-1.79-1.32-1.82-2.45l-.25-12c-.02-1.28.38-1.44,1.23-.47,1.3,1.5,2.85,1.68,4.64.54,1.28-.81,2.36-1.79,3.21-2.94.83-1.1,1.17-.96.96.4-.72,5.25-.54,10.05.52,14.43.45,1.84.31,1.88-.38.11-.11-.29-.18-.58-.2-.88-.07-1.01-.58-1.71-1.53-2.06l-5.05-1.95c-1.03-.4-1.71-.07-2,.99-.83,2.92.16,4.91,2.94,6.01,1.03.4,1.55,1.17,1.55,2.29l-.02,13.84c0,1.05-.45,1.84-1.37,2.36-.96.56-1.82,1.23-2.56,2.06-.99,1.08-1.03,1.03-.16-.13,1.41-1.84,4.02-3.99,3.28-6.55-.18-.65-.81-1.08-1.48-1.01-11.24,1.19-9.47,11.89-9.65,19.92-.02.83-.34,1.5-.94,2.06-2.04,1.86-3.12,4.2-3.21,6.95-.16,4.87-1.41,16.27,2.74,19.65.61.49.99,1.12,1.17,1.88,1.14,4.85.58,8.84-1.73,11.98-3.5,4.73-2.49,16.87-1.68,21.78.31,1.86,1.26,3.23,2.85,4.08.7.38,1.05.96,1.03,1.75l-.2,9.58c-.02.92-.38,1.66-1.08,2.22-4.08,3.32-2.47,10.68-2.8,15.53-1.19,17.07,22.17,16.51,21.54,1.28-.16-3.66-.07-7.18.29-10.57.09-.9.58-1.32,1.5-1.28.27.02.54-.04.81-.16.76-.31,1.26-1.03,1.3-1.86.34-6.3.36-12.79.04-19.41-.02-.56-.22-1.03-.58-1.44ZM91.09,80.56c-.83-.11-1.57-.63-1.93-1.39l-4.78-9.83c-.63-1.28-.29-1.62.99-1.01,1.5.72,2.94.16,4.31-1.71,2.6-3.57,1.53-6.26.99-10.07-.04-.27-.02-.27.09-.02.65,1.5.34,2.87.99,4.35,2,4.55,4.24,8.75,6.69,12.63.74,1.19.49,1.5-.79.9-2.22-1.03-4.58-.85-7.07.56-1.55.88-1.86,2.96-.65,4.26.71.76,1.59,1.21,2.6,1.41,1.04.04,2.09.01,3.15-.17.09-.02.13.02.13.13-.02.11-.07.13-.13.07-.04-.04-.09-.07-.13-.09-.07-.02-.16-.04-.25-.02-1.02.23-1.94.24-2.77.08-.48-.02-.96-.02-1.43-.08ZM100.55,98.1c.52-.87,1.14-1.64,1.88-2.33.63-.61.72-1.26.29-2-.92-1.55-2.31-2.13-4.15-1.79-.83.16-1.23-.2-1.26-1.03-.04-1.01-.31-1.93-.83-2.76-.9-1.41-1.97-1.5-3.21-.31-.2.18-.31.13-.38-.11-.02-.09-.02-.18.02-.25.04-.07.11-.13.18-.16,1.5-.58,2.83-1.44,3.97-2.58.63-.63,1.68-.47,2.11.31l4.33,7.94c.4.76.4,1.53,0,2.29-.63,1.21-1.46,2.27-2.49,3.19-.99.87-1.14.74-.47-.4ZM119.83,125.61c1.32,2.09,1.01,3.95-.94,5.59-.9.74-1.08.61-.52-.43.92-1.73,1.19-3.37.81-4.89-.38-1.44-.16-1.53.65-.27ZM114.44,122.51c-.25-.67-.2-1.32.13-1.95.94-1.79.7-3.41-.74-4.87-.34-.34-.72-.47-1.19-.45-.2.02-.4.07-.61.13-.49.2-.72.02-.7-.52.02-.83.72-1.1,2.09-.81.67.16,1.26.61,1.57,1.21l3.84,7.56c.25.47.09.79-.43.92-2.13.54-3.46.13-3.97-1.23ZM152.33,94.31c1.03.49,1.64,1.3,1.82,2.45.11.79-.16.94-.81.52-.88-.61-1.46-1.37-1.77-2.29-.25-.81,0-1.03.76-.67ZM145.72,94.51c.15-.16.27-.32.4-.47-.08.18-.16.36-.24.54-.02.07-.02.13.04.2.02.02-.02,0-.18-.09-.07-.04-.09-.11-.02-.18ZM147.8,121.5c-.61.16-1.19,0-1.77-.45-.08-.06-.16-.06-.24-.11-.52-.03-1.03-.09-1.53-.17-.5.16-.95.51-1.18,1.04l-4.4,9.87c-.25.56-.63.7-1.17.43-1.35-.7-2.74-1.05-4.15-1.05-.54,0-.67-.22-.43-.7l5.32-9.69c.43-.79,1.37-1.14,2.22-.83,1.23.44,2.49.75,3.79.93.5-.16,1.04-.11,1.53.17.64.04,1.29.06,1.95.04,1.59-.04,1.62.13.07.52ZM139.84,117.4c.47-1.88,1.77-2.87,3.95-2.94.67-.02.72.16.16.52-.36.22-.74.4-1.14.54-.76.22-1.39.72-1.82,1.39-.18.29-.4.54-.65.79-.49.47-.65.38-.49-.29ZM154.15,102.86l-3.03,6.8c-.47,1.05-1.17,1.23-2.06.49-3.57-2.89-7.25-2.74-11.08.49-.09.08-.2.09-.3.12-.05.05-.09.1-.15.15-.11.11-.22.09-.31-.04-.02-.02.09-.04.31-.04.05,0,.1-.05.15-.06,2.99-2.65,5.12-6.07,6.38-10.31.72-2.4,1.73-2.54,3.01-.4.92,1.5,2.54,2.76,4.82,3.72.72.31,1.08.09,1.05-.7,0-.4.27-.65.81-.74.47-.09.61.09.4.52ZM162,87.29c-.49-.49-1.26-.49-1.75-.02-1.28,1.23-1.84,2.83-1.68,4.73.09.92-.31,1.23-1.19.94-.25-.09-.43-.29-.52-.58-.11-.36-.45-.58-.81-.54l-1.41.18c-1.1.11-1.39-.31-.87-1.28l2.8-5.25c.43-.81,1.03-1.01,1.84-.61,3.66,1.82,5.43,2.76,5.29,2.8-.65.25-1.21.11-1.71-.38ZM166.09,80.31c-.34.52-.81.85-1.41,1.01-.74.2-1.41.11-2.06-.31-1.59-1.05-2.89-.74-3.9.92-.61,1.01-.79.94-.49-.2.2-.79.61-1.41,1.26-1.91.74-.56,1.5-.52,2.24.16.2.2.45.34.74.43,1.37.43,2.47.29,3.28-.4.85-.72.96-.61.36.31ZM171.79,68.4c-1.64,3.07-2.96,6.15-3.93,9.24-.43,1.37-.74,1.35-.99-.07-.52-2.94-2.49-4.26-5.92-4.02-1.82.14-3.43.75-4.82,1.83,3.83-4.78,6.65-10.29,8.39-16.54.02-.04.07-.07.11-.07.04.02.07.07.07.11-.65,3.25.18,6.21,2.54,8.93.43.49,1.03.79,1.68.79.79,0,1.5-.27,2.11-.81,1.37-1.21,1.62-1.01.76.61ZM180.22,53.72l-.96-.07c-.56-.04-.96.49-.76,1.01.65,1.73.9,3.57.76,5.52-.09,1.26-.47,1.35-1.14.27-.81-1.3-1.86-2.42-3.16-3.39-.72-.52-1.37-.45-1.93.2-.29.34-.61.65-.92.94-1.12,1.05-1.39.88-.83-.56,2.11-5.36,4.64-10.41,7.63-15.14.2-.29.45-.36.76-.2l.02.02c.07.04.09.11.07.18-1.68,3.9-1.37,7.36.92,10.39.47.63.34.9-.45.83ZM182.44,65.41c-.25.18-.49.22-.79.11s-.27-.2.02-.29c.47-.13.92-.34,1.32-.63.74-.54,1.12-1.28,1.14-2.2l.09-6.17c.02-.76.36-.94,1.01-.56l1.21.72c1.05.65,1.91.43,2.56-.63.65-1.08.67-2.15.04-3.25-.45-.76-1.14-1.32-1.97-1.64-1.12-.43-1.86-1.19-2.24-2.29-.43-1.23-.16-1.44.83-.56l3.5,3.03c.58.52.88,1.14.88,1.91l.02,12.88c-.07-.24-.18-.47-.38-.65-2.18-1.95-4.58-1.88-7.25.22ZM189.35,68.64c-1.1,1.26-2.42,2.04-4.02,2.36-1.26.25-1.35.02-.27-.67l4.44-2.94c.31-.2.48-.51.56-.84v.17c0,.74-.25,1.37-.72,1.93ZM178.7,128.34c-.02-.07,0-.07.04-.04.04.04.07.11.09.18,1.05,4.22,3.68,5.7,7.96,6.39,1.55.25,2.85-1.17,2.47-2.69-.54-2.18-2.06-3.57-4.6-4.17-.36-.09-.47-.31-.36-.67l.22-.63c.25-.72.67-.83,1.23-.34l3.43,2.96c.67.58,1.03,1.44.96,2.33-.31,4.15-.31,7.99.02,11.49.29,2.83-1.12,4.89-4.2,6.19-.63.27-.74.13-.34-.43.45-.63,1.01-1.08,1.71-1.35,1.03-.43,1.73-1.17,2.09-2.22.56-1.68.04-2.8-1.59-3.37-.67-.22-1.41-.22-2.09.02-2.8,1.01-4.91,2.54-6.35,4.62-.72,1.05-.94.94-.65-.29,1.39-6.33,1.44-12-.07-17.99ZM187.09,181.36c-2.54-.07-4.69.79-6.44,2.6-.76.79-1.14.63-1.12-.47l.2-11.26c.02-1.12.4-1.28,1.19-.47,1.62,1.68,3.52,2.45,5.74,2.31,1.97-.11,2.85-1.19,2.65-3.21-.02-.13.04-.2.18-.2h.07c.09,0,.13.04.13.13.2,4.82.29,9.45.27,13.91,0,.79-.36,1.32-1.08,1.66-1.37.65-2.42,1.57-3.16,2.76-.65,1.03-.76.96-.36-.18.29-.83.79-1.46,1.53-1.91,1.32-.81,2.04-1.97,2.15-3.48.09-1.17-.79-2.15-1.95-2.2ZM185.27,165.14c.58.56,1.08,1.17,1.48,1.82.29.49.7.88,1.21,1.12.36.18.67.43.96.74.9,1.05.7,1.35-.61.88-1.93-.7-3.21-2.06-3.81-4.08-.34-1.14-.09-1.3.76-.47ZM184.95,162.4c-.52.36-.79.22-.76-.4l.25-8.46c0-.16.16-.25.31-.2,3.28,1.14,5.99.58,8.17-1.68.74-.76,1.1-.61,1.08.45l-.09,11.33c-.02.92-.36,1.05-1.03.45-2.94-2.62-5.56-3.12-7.92-1.48ZM189.94,221.88c-.02,3.16-1.64,4.69-4.8,4.58l-1.44-.04c-2.71-.09-3.86-1.48-3.45-4.15.74-5.03.18-10.01-1.64-14.96-.04-.09-.02-.18.07-.25l.04-.04s0-.02,0-.03c.02-.02.02-.04.02-.04.11-.11.11-.09.02.02-.01.01-.03.03-.05.05-.05.06-.08.12-.04.22,1.5,3.45,4.22,5.56,8.1,6.33,1.17.25,1.84-.22,2.04-1.41l.34-2c.25-1.48-.74-2.87-2.22-3.12-.99-.18-1.68-.72-2.09-1.59-.31-.7-.13-.85.52-.47,1.41.81,2.54,1.79,3.37,2.98.88,1.23,1.32,2.58,1.3,4.08l-.09,9.85ZM193.86,206.01c.09-.79-.16-1.44-.72-1.95-2.71-2.54-5.32-3.41-7.81-2.67-.85.25-1.28-.07-1.26-.96l.2-7.76c.02-1.03.43-1.21,1.19-.52.31.27.47.61.45.99,0,.4.38.7.79.58l5.9-1.91c.85-.29,1.26.02,1.23.92-.09,4.78.11,9.47.63,14.07-.47-.07-.67-.31-.61-.79ZM185.76,122.89c-1.03.36-1.55,0-1.55-1.1l.04-7.11c0-.79.34-.99,1.03-.61,2.67,1.46,5.18.67,7.52-2.31.74-.96,1.12-.83,1.12.38,0,4.67-1.05,12,1.68,16.04.16.22.11.36-.16.4-.83.13-2.96-8.1-9.69-5.7Z"/></clipPath></defs><g class="g"><rect class="c" width="256" height="256"/><polygon class="d" points="0 154.07 0 256 256 256 256 55.87 0 154.07"/><polygon class="f" points="163.57 91.57 256 55.89 256 0 97.04 0 163.57 91.57"/></g></svg>